<?xml version="1.0" encoding="utf-8"?>
<!-- Generator: Adobe Illustrator 16.0.0, SVG Export Plug-In . SVG Version: 6.00 Build 0)  -->
<!DOCTYPE svg PUBLIC "-//W3C//DTD SVG 1.1//EN" "http://www.w3.org/Graphics/SVG/1.1/DTD/svg11.dtd">
<svg version="1.1" id="Layer_1" xmlns="http://www.w3.org/2000/svg" xmlns:xlink="http://www.w3.org/1999/xlink" x="0px" y="0px"
	 width="1366px" height="768px" viewBox="0 0 1366 768" enable-background="new 0 0 1366 768" xml:space="preserve">
<linearGradient id="SVGID_1_" gradientUnits="userSpaceOnUse" x1="532.6221" y1="448.9346" x2="1327.5347" y2="105.6767">
	<stop  offset="0" style="stop-color:#9900FF"/>
	<stop  offset="1" style="stop-color:#5500DD"/>
</linearGradient>
<rect fill="url(#SVGID_1_)" width="1366" height="768"/>
<linearGradient id="SVGID_2_" gradientUnits="userSpaceOnUse" x1="1154.2227" y1="115.7383" x2="1245.5508" y2="76.3011">
	<stop  offset="0" style="stop-color:#9900FF"/>
	<stop  offset="1" style="stop-color:#5500DD"/>
</linearGradient>
<polygon fill="url(#SVGID_2_)" points="1256.223,144.389 1182.588,199.705 1097.865,163.594 1086.777,72.167 1160.412,16.851 
	1245.135,52.961 "/>
<linearGradient id="SVGID_3_" gradientUnits="userSpaceOnUse" x1="767.8359" y1="48.5586" x2="801.8829" y2="33.8565">
	<stop  offset="0" style="stop-color:#9900FF"/>
	<stop  offset="1" style="stop-color:#5500DD"/>
</linearGradient>
<polygon fill="url(#SVGID_3_)" points="807.611,56.889 781.322,80.201 747.988,69.09 740.943,34.667 767.232,11.354 800.566,22.465 
	"/>
<linearGradient id="SVGID_4_" gradientUnits="userSpaceOnUse" x1="949.1787" y1="83.2441" x2="986.4145" y2="67.1651">
	<stop  offset="0" style="stop-color:#9900FF"/>
	<stop  offset="1" style="stop-color:#5500DD"/>
</linearGradient>
<polygon fill="url(#SVGID_4_)" points="975.667,115.222 935.615,114.551 916.172,79.53 936.778,45.18 976.83,45.852 996.273,80.873 
	"/>
<linearGradient id="SVGID_5_" gradientUnits="userSpaceOnUse" x1="784.1729" y1="225.1841" x2="974.1476" y2="143.1495">
	<stop  offset="0" style="stop-color:#9900FF"/>
	<stop  offset="1" style="stop-color:#5500DD"/>
</linearGradient>
<polygon fill="url(#SVGID_5_)" points="988.167,295.778 829.564,398.263 661.509,312.151 652.056,123.555 810.658,21.07 
	978.714,107.182 "/>
<linearGradient id="SVGID_6_" gradientUnits="userSpaceOnUse" x1="1087.4609" y1="335.2231" x2="1179.2887" y2="295.5702">
	<stop  offset="0" style="stop-color:#9900FF"/>
	<stop  offset="1" style="stop-color:#5500DD"/>
</linearGradient>
<polygon fill="url(#SVGID_6_)" points="1164.556,398.263 1073.604,414.714 1013.882,344.173 1045.11,257.182 1136.062,240.73 
	1195.784,311.271 "/>
<linearGradient id="SVGID_7_" gradientUnits="userSpaceOnUse" x1="880.6191" y1="519.9014" x2="971.9035" y2="480.4831">
	<stop  offset="0" style="stop-color:#9900FF"/>
	<stop  offset="1" style="stop-color:#5500DD"/>
</linearGradient>
<polygon fill="url(#SVGID_7_)" points="834,590.223 798.586,496.004 862.475,418.226 961.777,434.666 997.191,528.885 
	933.303,606.663 "/>
<linearGradient id="SVGID_8_" gradientUnits="userSpaceOnUse" x1="1070.1855" y1="555.7207" x2="1157.8951" y2="517.8461">
	<stop  offset="0" style="stop-color:#9900FF"/>
	<stop  offset="1" style="stop-color:#5500DD"/>
</linearGradient>
<polygon fill="url(#SVGID_8_)" points="1178.444,569.389 1114.569,638.358 1022.902,617.525 995.11,527.723 1058.985,458.753 
	1150.652,479.586 "/>
<linearGradient id="SVGID_9_" gradientUnits="userSpaceOnUse" x1="1219.958" y1="382.9971" x2="1301.5262" y2="347.7744">
	<stop  offset="0" style="stop-color:#9900FF"/>
	<stop  offset="1" style="stop-color:#5500DD"/>
</linearGradient>
<polygon fill="url(#SVGID_9_)" points="1293.723,431.889 1216.443,454.63 1158.109,399.074 1177.055,320.778 1254.334,298.037 
	1312.668,353.592 "/>
<linearGradient id="SVGID_10_" gradientUnits="userSpaceOnUse" x1="991.3945" y1="201.3213" x2="1110.2648" y2="149.9909">
	<stop  offset="0" style="stop-color:#9900FF"/>
	<stop  offset="1" style="stop-color:#5500DD"/>
</linearGradient>
<polygon fill="url(#SVGID_10_)" points="1131.223,229.111 1040.076,311.981 922.735,274.481 896.541,154.111 987.688,71.241 
	1105.028,108.741 "/>
<linearGradient id="SVGID_11_" gradientUnits="userSpaceOnUse" x1="548.582" y1="364.8281" x2="713.7794" y2="293.4929">
	<stop  offset="0" style="stop-color:#9900FF"/>
	<stop  offset="1" style="stop-color:#5500DD"/>
</linearGradient>
<polygon fill="url(#SVGID_11_)" points="704.833,454.63 552.876,511.234 427.876,407.938 454.834,248.037 606.791,191.433 
	731.791,294.729 "/>
<linearGradient id="SVGID_12_" gradientUnits="userSpaceOnUse" x1="641.127" y1="579.127" x2="794.3378" y2="512.9677">
	<stop  offset="0" style="stop-color:#9900FF"/>
	<stop  offset="1" style="stop-color:#5500DD"/>
</linearGradient>
<polygon fill="url(#SVGID_12_)" points="820.111,616.611 701.811,721.516 551.81,671.516 520.111,516.611 638.413,411.707 
	788.412,461.707 "/>
<linearGradient id="SVGID_13_" gradientUnits="userSpaceOnUse" x1="892.1426" y1="643.6533" x2="1019.1617" y2="588.8041">
	<stop  offset="0" style="stop-color:#9900FF"/>
	<stop  offset="1" style="stop-color:#5500DD"/>
</linearGradient>
<polygon fill="url(#SVGID_13_)" points="1054.833,655.5 966.257,764.473 827.596,742.25 777.511,611.055 866.087,502.082 
	1004.748,524.305 "/>
<linearGradient id="SVGID_14_" gradientUnits="userSpaceOnUse" x1="263.7402" y1="604.7158" x2="356.1509" y2="564.8112">
	<stop  offset="0" style="stop-color:#9900FF"/>
	<stop  offset="1" style="stop-color:#5500DD"/>
</linearGradient>
<polygon fill="url(#SVGID_14_)" points="384,606.663 324.387,690.923 221.609,681.427 178.444,587.671 238.057,503.411 
	340.835,512.907 "/>
<linearGradient id="SVGID_15_" gradientUnits="userSpaceOnUse" x1="431.9971" y1="645.2207" x2="516.0037" y2="608.9451">
	<stop  offset="0" style="stop-color:#9900FF"/>
	<stop  offset="1" style="stop-color:#5500DD"/>
</linearGradient>
<polygon fill="url(#SVGID_15_)" points="532.611,662.444 469.391,723.773 384.668,699.688 363.166,614.272 426.386,552.943 
	511.109,577.029 "/>
<linearGradient id="SVGID_16_" gradientUnits="userSpaceOnUse" x1="441.2881" y1="493.5146" x2="549.6" y2="446.7435">
	<stop  offset="0" style="stop-color:#9900FF"/>
	<stop  offset="1" style="stop-color:#5500DD"/>
</linearGradient>
<polygon fill="url(#SVGID_16_)" points="579.834,490.223 515.995,589.685 397.938,584.129 343.722,479.111 407.561,379.65 
	525.617,385.205 "/>
<linearGradient id="SVGID_17_" gradientUnits="userSpaceOnUse" x1="277.8145" y1="367.7051" x2="325.2008" y2="347.2428">
	<stop  offset="0" style="stop-color:#9900FF"/>
	<stop  offset="1" style="stop-color:#5500DD"/>
</linearGradient>
<polygon fill="url(#SVGID_17_)" points="336.778,362.444 312.981,406.44 262.981,407.829 236.778,365.223 260.575,321.227 
	310.575,319.838 "/>
<linearGradient id="SVGID_18_" gradientUnits="userSpaceOnUse" x1="184.1055" y1="239.4507" x2="293.6768" y2="192.1357">
	<stop  offset="0" style="stop-color:#9900FF"/>
	<stop  offset="1" style="stop-color:#5500DD"/>
</linearGradient>
<polygon fill="url(#SVGID_18_)" points="320.111,255.5 240.822,342.833 125.544,317.833 89.556,205.5 168.845,118.167 
	284.123,143.167 "/>
<linearGradient id="SVGID_19_" gradientUnits="userSpaceOnUse" x1="348.9873" y1="133.8447" x2="423.9359" y2="101.4806">
	<stop  offset="0" style="stop-color:#9900FF"/>
	<stop  offset="1" style="stop-color:#5500DD"/>
</linearGradient>
<polygon fill="url(#SVGID_19_)" points="427.876,163.833 364.248,201.819 299.538,165.708 298.456,91.611 362.084,53.625 
	426.794,89.737 "/>
<linearGradient id="SVGID_20_" gradientUnits="userSpaceOnUse" x1="349.7593" y1="337.9873" x2="472.024" y2="285.1912">
	<stop  offset="0" style="stop-color:#9900FF"/>
	<stop  offset="1" style="stop-color:#5500DD"/>
</linearGradient>
<polygon fill="url(#SVGID_20_)" points="503.444,328 438.167,441 307.611,441 242.333,328 307.611,215 438.167,215 "/>
<linearGradient id="SVGID_21_" gradientUnits="userSpaceOnUse" x1="84.3613" y1="509.7227" x2="177.8936" y2="469.3337">
	<stop  offset="0" style="stop-color:#9900FF"/>
	<stop  offset="1" style="stop-color:#5500DD"/>
</linearGradient>
<polygon fill="url(#SVGID_21_)" points="163.167,573.556 70.713,590.742 9.602,519.269 40.945,430.608 133.398,413.422 
	194.509,484.896 "/>
<linearGradient id="SVGID_22_" gradientUnits="userSpaceOnUse" x1="41.8652" y1="655.1338" x2="88.3889" y2="635.044">
	<stop  offset="0" style="stop-color:#9900FF"/>
	<stop  offset="1" style="stop-color:#5500DD"/>
</linearGradient>
<polygon fill="url(#SVGID_22_)" points="95.111,668 58.455,698.157 14.01,681.49 6.222,634.666 42.878,604.509 87.323,621.176 "/>
<linearGradient id="SVGID_23_" gradientUnits="userSpaceOnUse" x1="89.0757" y1="696.5273" x2="157.6876" y2="666.8994">
	<stop  offset="0" style="stop-color:#9900FF"/>
	<stop  offset="1" style="stop-color:#5500DD"/>
</linearGradient>
<polygon fill="url(#SVGID_23_)" points="178.444,698.157 133.985,760.694 57.596,753.46 25.667,683.688 70.126,621.151 
	146.515,628.386 "/>
<linearGradient id="SVGID_24_" gradientUnits="userSpaceOnUse" x1="223.2891" y1="675.2139" x2="294.5918" y2="644.4241">
	<stop  offset="0" style="stop-color:#9900FF"/>
	<stop  offset="1" style="stop-color:#5500DD"/>
</linearGradient>
<polygon fill="url(#SVGID_24_)" points="308.939,689.495 255.445,741.936 183.284,721.828 164.617,649.282 218.11,596.842 
	290.271,616.949 "/>
<linearGradient id="SVGID_25_" gradientUnits="userSpaceOnUse" x1="223.4268" y1="385.0488" x2="330.1217" y2="338.976">
	<stop  offset="0" style="stop-color:#9900FF"/>
	<stop  offset="1" style="stop-color:#5500DD"/>
</linearGradient>
<polygon fill="url(#SVGID_25_)" points="336.778,426.333 246.894,482.018 153.727,432.019 150.444,326.334 240.329,270.649 
	333.495,320.648 "/>
<linearGradient id="SVGID_26_" gradientUnits="userSpaceOnUse" x1="21.3584" y1="32.3608" x2="44.1338" y2="22.526">
	<stop  offset="0" style="stop-color:#9900FF"/>
	<stop  offset="1" style="stop-color:#5500DD"/>
</linearGradient>
<polygon fill="url(#SVGID_26_)" points="31.222,53.625 8.417,46.874 2.862,23.748 20.112,7.375 42.917,14.126 48.472,37.252 "/>
<linearGradient id="SVGID_27_" gradientUnits="userSpaceOnUse" x1="39.3911" y1="158.0332" x2="87.3922" y2="137.3055">
	<stop  offset="0" style="stop-color:#9900FF"/>
	<stop  offset="1" style="stop-color:#5500DD"/>
</linearGradient>
<polygon fill="url(#SVGID_27_)" points="89.556,177.722 48.566,201.497 7.482,177.886 7.388,130.5 48.377,106.726 89.461,130.337 
	"/>
<linearGradient id="SVGID_28_" gradientUnits="userSpaceOnUse" x1="170.0073" y1="57.269" x2="214.6063" y2="38.0104">
	<stop  offset="0" style="stop-color:#9900FF"/>
	<stop  offset="1" style="stop-color:#5500DD"/>
</linearGradient>
<polygon fill="url(#SVGID_28_)" points="213.167,80.201 172.79,96.983 138.068,70.408 143.722,27.05 184.099,10.268 218.821,36.843 
	"/>
<linearGradient id="SVGID_29_" gradientUnits="userSpaceOnUse" x1="103.5137" y1="136.6875" x2="213.2707" y2="89.2924">
	<stop  offset="0" style="stop-color:#9900FF"/>
	<stop  offset="1" style="stop-color:#5500DD"/>
</linearGradient>
<polygon fill="url(#SVGID_29_)" points="204.833,199.705 102.217,233.477 21.661,161.494 43.722,55.739 146.339,21.967 
	226.895,93.95 "/>
<linearGradient id="SVGID_30_" gradientUnits="userSpaceOnUse" x1="496.2607" y1="103.6841" x2="578.2872" y2="68.2635">
	<stop  offset="0" style="stop-color:#9900FF"/>
	<stop  offset="1" style="stop-color:#5500DD"/>
</linearGradient>
<polygon fill="url(#SVGID_30_)" points="579.834,140.222 508.36,177.541 440.304,134.302 443.722,53.745 515.196,16.426 
	583.252,59.665 "/>
<linearGradient id="SVGID_31_" gradientUnits="userSpaceOnUse" x1="1214.2988" y1="239.606" x2="1325.7815" y2="191.4657">
	<stop  offset="0" style="stop-color:#9900FF"/>
	<stop  offset="1" style="stop-color:#5500DD"/>
</linearGradient>
<polygon fill="url(#SVGID_31_)" points="1299.277,327.722 1183.136,334.44 1119.247,237.218 1171.5,133.278 1287.642,126.56 
	1351.53,223.782 "/>
<linearGradient id="SVGID_32_" gradientUnits="userSpaceOnUse" x1="1208.1133" y1="575.9902" x2="1322.9219" y2="526.4138">
	<stop  offset="0" style="stop-color:#9900FF"/>
	<stop  offset="1" style="stop-color:#5500DD"/>
</linearGradient>
<polygon fill="url(#SVGID_32_)" points="1285.389,680.5 1158.98,671.668 1103.425,557.779 1174.277,452.723 1300.686,461.555 
	1356.241,575.443 "/>
<linearGradient id="SVGID_33_" gradientUnits="userSpaceOnUse" x1="676.2246" y1="631.1064" x2="798.0871" y2="578.484">
	<stop  offset="0" style="stop-color:#9900FF"/>
	<stop  offset="1" style="stop-color:#5500DD"/>
</linearGradient>
<polygon fill="url(#SVGID_33_)" points="804.022,680.5 700.252,741.537 595.508,682.188 594.533,561.803 698.303,500.766 
	803.047,560.114 "/>
<linearGradient id="SVGID_34_" gradientUnits="userSpaceOnUse" x1="751.3867" y1="354.1143" x2="889.4825" y2="294.482">
	<stop  offset="0" style="stop-color:#9900FF"/>
	<stop  offset="1" style="stop-color:#5500DD"/>
</linearGradient>
<polygon fill="url(#SVGID_34_)" points="897.889,407.829 781.412,479.582 661.034,414.586 657.133,277.838 773.609,206.085 
	893.987,271.081 "/>
<linearGradient id="SVGID_35_" gradientUnits="userSpaceOnUse" x1="610.7905" y1="117.1006" x2="718.7943" y2="70.4626">
	<stop  offset="0" style="stop-color:#9900FF"/>
	<stop  offset="1" style="stop-color:#5500DD"/>
</linearGradient>
<polygon fill="url(#SVGID_35_)" points="722.889,162.444 630.146,214.747 538.479,160.58 539.556,54.111 632.298,1.809 
	723.965,55.976 "/>
<linearGradient id="SVGID_36_" gradientUnits="userSpaceOnUse" x1="0" y1="0" x2="0" y2="0">
	<stop  offset="0" style="stop-color:#9900FF"/>
	<stop  offset="1" style="stop-color:#5500DD"/>
</linearGradient>
<path fill="url(#SVGID_36_)" d="M0,0"/>
</svg>
